<svg width="1198" height="441" viewBox="0 0 1198 441" fill="none" xmlns="http://www.w3.org/2000/svg">
<path d="M59.6576 340.546L59.1732 341.421L59.6576 340.546ZM16.3485 296.739L15.4666 297.211L15.4701 297.217L16.3485 296.739ZM16.3485 161.834L15.4701 161.356L16.3485 161.834ZM59.6576 118.027L59.1732 117.152L59.6576 118.027ZM191.078 118.027L191.562 117.152L191.078 118.027ZM234.387 161.834L235.266 161.356L234.387 161.834ZM234.387 296.739L235.266 297.217L235.269 297.211L234.387 296.739ZM191.078 340.546L190.594 339.671L191.078 340.546ZM170.17 288.774L170.932 289.422L170.94 289.413L170.17 288.774ZM170.17 169.799L169.408 170.447L169.416 170.456L170.17 169.799ZM80.5654 169.799L81.3192 170.456L81.3273 170.447L80.5654 169.799ZM80.5654 288.774L79.7955 289.413L79.8034 289.422L80.5654 288.774ZM125.368 354.978C100.283 354.978 78.5528 349.863 60.1419 339.671L59.1732 341.421C77.9317 351.805 100.008 356.978 125.368 356.978V354.978ZM60.1419 339.671C41.7261 329.477 27.4254 315.013 17.227 296.262L15.4701 297.217C25.8476 316.298 40.4196 331.04 59.1732 341.421L60.1419 339.671ZM17.2305 296.268C7.03324 277.189 1.91659 254.79 1.91659 229.038H-0.0834141C-0.0834141 255.058 5.0879 277.792 15.4666 297.211L17.2305 296.268ZM1.91659 229.038C1.91659 203.285 7.03343 181.055 17.227 162.312L15.4701 161.356C5.08771 180.447 -0.0834141 203.019 -0.0834141 229.038H1.91659ZM17.227 162.312C27.4254 143.56 41.7261 129.097 60.1419 118.902L59.1732 117.152C40.4196 127.534 25.8476 142.275 15.4701 161.356L17.227 162.312ZM60.1419 118.902C78.5528 108.71 100.283 103.595 125.368 103.595V101.595C100.008 101.595 77.9317 106.768 59.1732 117.152L60.1419 118.902ZM125.368 103.595C150.452 103.595 172.183 108.71 190.594 118.902L191.562 117.152C172.804 106.768 150.728 101.595 125.368 101.595V103.595ZM190.594 118.902C209.01 129.097 223.31 143.56 233.509 162.312L235.266 161.356C224.888 142.275 210.316 127.534 191.562 117.152L190.594 118.902ZM233.509 162.312C243.702 181.055 248.819 203.285 248.819 229.038H250.819C250.819 203.019 245.648 180.447 235.266 161.356L233.509 162.312ZM248.819 229.038C248.819 254.79 243.702 277.189 233.505 296.268L235.269 297.211C245.648 277.792 250.819 255.058 250.819 229.038H248.819ZM233.509 296.262C223.31 315.013 209.01 329.477 190.594 339.671L191.562 341.421C210.316 331.04 224.888 316.298 235.266 297.217L233.509 296.262ZM190.594 339.671C172.183 349.863 150.452 354.978 125.368 354.978V356.978C150.728 356.978 172.804 351.805 191.562 341.421L190.594 339.671ZM125.368 309.687C144.224 309.687 159.445 302.937 170.932 289.422L169.408 288.127C158.329 301.162 143.681 307.687 125.368 307.687V309.687ZM170.94 289.413C182.43 275.558 188.096 255.38 188.096 229.038H186.096C186.096 255.131 180.478 274.778 169.4 288.136L170.94 289.413ZM188.096 229.038C188.096 202.373 182.433 182.344 170.924 169.142L169.416 170.456C180.474 183.14 186.096 202.604 186.096 229.038H188.096ZM170.932 169.151C159.445 155.637 144.224 148.887 125.368 148.887V150.887C143.681 150.887 158.329 157.412 169.408 170.447L170.932 169.151ZM125.368 148.887C106.512 148.887 91.291 155.637 79.8034 169.151L81.3273 170.447C92.4069 157.412 107.054 150.887 125.368 150.887V148.887ZM79.8116 169.142C68.3023 182.344 62.64 202.373 62.64 229.038H64.64C64.64 202.604 70.2613 183.14 81.3191 170.456L79.8116 169.142ZM62.64 229.038C62.64 255.38 68.306 275.558 79.7956 289.413L81.3351 288.136C70.2575 274.778 64.64 255.131 64.64 229.038H62.64ZM79.8034 289.422C91.291 302.937 106.512 309.687 125.368 309.687V307.687C107.054 307.687 92.4069 301.162 81.3273 288.127L79.8034 289.422ZM346.479 340.546L345.994 341.421L346.479 340.546ZM303.17 296.739L302.288 297.211L302.291 297.217L303.17 296.739ZM303.17 161.834L302.291 161.356L303.17 161.834ZM346.479 118.027L345.994 117.152L346.479 118.027ZM477.899 118.027L478.383 117.152L477.899 118.027ZM521.208 161.834L522.087 161.356L521.208 161.834ZM521.208 296.739L522.087 297.217L522.09 297.211L521.208 296.739ZM477.899 340.546L477.415 339.671L477.899 340.546ZM456.991 288.774L457.753 289.422L457.761 289.413L456.991 288.774ZM456.991 169.799L456.229 170.447L456.238 170.456L456.991 169.799ZM367.387 169.799L368.14 170.456L368.148 170.447L367.387 169.799ZM367.387 288.774L366.617 289.413L366.625 289.422L367.387 288.774ZM412.189 354.978C387.104 354.978 365.374 349.863 346.963 339.671L345.994 341.421C364.753 351.805 386.829 356.978 412.189 356.978V354.978ZM346.963 339.671C328.547 329.477 314.247 315.013 304.048 296.262L302.291 297.217C312.669 316.298 327.241 331.04 345.994 341.421L346.963 339.671ZM304.052 296.268C293.854 277.189 288.738 254.79 288.738 229.038H286.738C286.738 255.058 291.909 277.792 302.288 297.211L304.052 296.268ZM288.738 229.038C288.738 203.285 293.855 181.055 304.048 162.312L302.291 161.356C291.909 180.447 286.738 203.019 286.738 229.038H288.738ZM304.048 162.312C314.247 143.56 328.547 129.097 346.963 118.902L345.994 117.152C327.241 127.534 312.669 142.275 302.291 161.356L304.048 162.312ZM346.963 118.902C365.374 108.71 387.104 103.595 412.189 103.595V101.595C386.829 101.595 364.753 106.768 345.994 117.152L346.963 118.902ZM412.189 103.595C437.273 103.595 459.004 108.71 477.415 118.902L478.383 117.152C459.625 106.768 437.549 101.595 412.189 101.595V103.595ZM477.415 118.902C495.831 129.097 510.131 143.56 520.33 162.312L522.087 161.356C511.709 142.275 497.137 127.534 478.383 117.152L477.415 118.902ZM520.33 162.312C530.523 181.055 535.64 203.285 535.64 229.038H537.64C537.64 203.019 532.469 180.447 522.087 161.356L520.33 162.312ZM535.64 229.038C535.64 254.79 530.523 277.189 520.326 296.268L522.09 297.211C532.469 277.792 537.64 255.058 537.64 229.038H535.64ZM520.33 296.262C510.131 315.013 495.831 329.477 477.415 339.671L478.383 341.421C497.137 331.04 511.709 316.298 522.087 297.217L520.33 296.262ZM477.415 339.671C459.004 349.863 437.273 354.978 412.189 354.978V356.978C437.549 356.978 459.625 351.805 478.383 341.421L477.415 339.671ZM412.189 309.687C431.045 309.687 446.266 302.937 457.753 289.422L456.229 288.127C445.15 301.162 430.503 307.687 412.189 307.687V309.687ZM457.761 289.413C469.251 275.558 474.917 255.38 474.917 229.038H472.917C472.917 255.131 467.299 274.778 456.222 288.136L457.761 289.413ZM474.917 229.038C474.917 202.373 469.254 182.344 457.745 169.142L456.238 170.456C467.295 183.14 472.917 202.604 472.917 229.038H474.917ZM457.753 169.151C446.266 155.637 431.045 148.887 412.189 148.887V150.887C430.503 150.887 445.15 157.412 456.229 170.447L457.753 169.151ZM412.189 148.887C393.333 148.887 378.112 155.637 366.625 169.151L368.148 170.447C379.228 157.412 393.875 150.887 412.189 150.887V148.887ZM366.633 169.142C355.123 182.344 349.461 202.373 349.461 229.038H351.461C351.461 202.604 357.082 183.14 368.14 170.456L366.633 169.142ZM349.461 229.038C349.461 255.38 355.127 275.558 366.617 289.413L368.156 288.136C357.079 274.778 351.461 255.131 351.461 229.038H349.461ZM366.625 289.422C378.112 302.937 393.333 309.687 412.189 309.687V307.687C393.875 307.687 379.228 301.162 368.148 288.127L366.625 289.422ZM588 440.605H587V441.605H588V440.605ZM588 107.573V106.573H587V107.573H588ZM648.732 107.573H649.732V106.573H648.732V107.573ZM648.732 146.402H647.732L649.617 146.867L648.732 146.402ZM680.094 114.543L679.606 113.669L679.597 113.674L680.094 114.543ZM784.135 118.027L783.592 118.867L783.6 118.872L784.135 118.027ZM821.968 161.834L821.064 162.262L821.067 162.268L821.968 161.834ZM821.968 296.739L822.872 297.167L822.874 297.161L821.968 296.739ZM784.633 340.546L784.09 339.706L784.633 340.546ZM681.587 345.026L681.098 345.898L681.11 345.906L681.123 345.912L681.587 345.026ZM650.225 314.66L651.091 314.159L649.225 310.937V314.66H650.225ZM650.225 440.605V441.605H651.225V440.605H650.225ZM755.76 288.774L756.522 289.422L756.53 289.413L755.76 288.774ZM755.76 169.799L754.998 170.447L755.006 170.456L755.76 169.799ZM666.155 169.799L666.909 170.456L666.917 170.447L666.155 169.799ZM666.155 288.774L665.385 289.413L665.393 289.422L666.155 288.774ZM589 440.605V107.573H587V440.605H589ZM588 108.573H648.732V106.573H588V108.573ZM647.732 107.573V146.402H649.732V107.573H647.732ZM649.617 146.867C656.491 133.773 666.804 123.288 680.59 115.411L679.597 113.674C665.505 121.727 654.911 132.482 647.846 145.937L649.617 146.867ZM680.581 115.416C694.688 107.542 710.613 103.595 728.381 103.595V101.595C710.306 101.595 694.04 105.614 679.606 113.669L680.581 115.416ZM728.381 103.595C749.452 103.595 767.843 108.696 783.592 118.867L784.677 117.187C768.567 106.783 749.789 101.595 728.381 101.595V103.595ZM783.6 118.872C799.688 129.05 812.177 143.501 821.064 162.262L822.872 161.406C813.837 142.334 801.105 127.58 784.669 117.182L783.6 118.872ZM821.067 162.268C829.947 180.686 834.409 202.931 834.409 229.038H836.409C836.409 202.709 831.91 180.152 822.869 161.4L821.067 162.268ZM834.409 229.038C834.409 254.809 829.948 277.227 821.061 296.317L822.874 297.161C831.908 277.755 836.409 255.038 836.409 229.038H834.409ZM821.064 296.311C812.175 315.078 799.847 329.529 784.09 339.706L785.175 341.386C801.277 330.987 813.84 316.234 822.872 297.167L821.064 296.311ZM784.09 339.706C768.343 349.876 749.787 354.978 728.381 354.978V356.978C750.117 356.978 769.062 351.792 785.175 341.386L784.09 339.706ZM728.381 354.978C711.269 354.978 695.833 351.36 682.051 344.141L681.123 345.912C695.218 353.295 710.978 356.978 728.381 356.978V354.978ZM682.076 344.154C668.614 336.603 658.296 326.604 651.091 314.159L649.36 315.161C656.757 327.939 667.346 338.184 681.098 345.898L682.076 344.154ZM649.225 314.66V440.605H651.225V314.66H649.225ZM650.225 439.605H588V441.605H650.225V439.605ZM710.957 309.687C729.813 309.687 745.034 302.937 756.522 289.422L754.998 288.127C743.918 301.162 729.271 307.687 710.957 307.687V309.687ZM756.53 289.413C768.019 275.558 773.685 255.38 773.685 229.038H771.685C771.685 255.131 766.068 274.778 754.99 288.136L756.53 289.413ZM773.685 229.038C773.685 202.373 768.023 182.344 756.514 169.142L755.006 170.456C766.064 183.14 771.685 202.604 771.685 229.038H773.685ZM756.522 169.151C745.034 155.637 729.813 148.887 710.957 148.887V150.887C729.271 150.887 743.918 157.412 754.998 170.447L756.522 169.151ZM710.957 148.887C692.102 148.887 676.881 155.637 665.393 169.151L666.917 170.447C677.997 157.412 692.644 150.887 710.957 150.887V148.887ZM665.401 169.142C653.892 182.344 648.23 202.373 648.23 229.038H650.23C650.23 202.604 655.851 183.14 666.909 170.456L665.401 169.142ZM648.23 229.038C648.23 255.38 653.896 275.558 665.385 289.413L666.925 288.136C655.847 274.778 650.23 255.131 650.23 229.038H648.23ZM665.393 289.422C676.881 302.937 692.102 309.687 710.957 309.687V307.687C692.644 307.687 677.997 301.162 666.917 288.127L665.393 289.422ZM873.047 327.105L872.116 326.742L871.845 327.437L872.433 327.895L873.047 327.105ZM888.977 286.285L889.537 285.457L888.5 284.756L888.045 285.922L888.977 286.285ZM930.295 305.7L930.004 306.656L930.013 306.659L930.023 306.662L930.295 305.7ZM1011.44 304.206L1012.01 305.027L1012.02 305.022L1011.44 304.206ZM992.521 255.421L992.711 254.44L992.707 254.439L992.521 255.421ZM942.74 245.963L942.927 244.981L942.926 244.981L942.74 245.963ZM892.462 138.935L891.67 138.324L891.664 138.332L891.659 138.339L892.462 138.935ZM1032.84 110.062L1032.54 111.017L1032.55 111.02L1032.56 111.022L1032.84 110.062ZM1073.66 131.468L1074.59 131.851L1074.86 131.179L1074.31 130.707L1073.66 131.468ZM1056.74 172.288L1056.1 173.058L1057.14 173.921L1057.66 172.671L1056.74 172.288ZM1021.89 153.371L1021.56 154.315L1021.57 154.318L1021.89 153.371ZM947.22 154.865L946.642 154.049L946.634 154.055L946.626 154.061L947.22 154.865ZM964.146 204.148L964.332 203.165L964.318 203.163L964.146 204.148ZM1013.93 213.606L1013.74 214.588L1013.74 214.589L1013.93 213.606ZM1062.71 235.509L1062.01 236.227L1062.02 236.232L1062.03 236.237L1062.71 235.509ZM1051.26 335.568L1051.85 336.38L1051.85 336.373L1051.26 335.568ZM975.595 354.978C955.1 354.978 935.943 352.499 918.117 347.547L917.582 349.474C935.599 354.479 954.938 356.978 975.595 356.978V354.978ZM918.117 347.547C900.294 342.597 885.485 335.512 873.661 326.316L872.433 327.895C884.504 337.283 899.563 344.469 917.582 349.474L918.117 347.547ZM873.979 327.469L889.909 286.649L888.045 285.922L872.116 326.742L873.979 327.469ZM888.417 287.114C900.785 295.471 914.65 301.983 930.004 306.656L930.586 304.743C915.408 300.124 901.727 293.694 889.537 285.457L888.417 287.114ZM930.023 306.662C945.374 311 960.731 313.171 976.093 313.171V311.171C960.922 311.171 945.748 309.028 930.567 304.737L930.023 306.662ZM976.093 313.171C992.097 313.171 1004.13 310.511 1012.01 305.027L1010.87 303.385C1003.48 308.522 991.948 311.171 976.093 311.171V313.171ZM1012.02 305.022C1020.22 299.213 1024.38 291.62 1024.38 282.303H1022.38C1022.38 290.907 1018.59 297.916 1010.86 303.39L1012.02 305.022ZM1024.38 282.303C1024.38 275.052 1021.69 269.049 1016.33 264.375C1011 259.733 1003.09 256.448 992.711 254.44L992.33 256.403C1002.53 258.377 1010.05 261.564 1015.01 265.883C1019.93 270.168 1022.38 275.616 1022.38 282.303H1024.38ZM992.707 254.439L942.927 244.981L942.553 246.946L992.334 256.404L992.707 254.439ZM942.926 244.981C921.975 241.021 906.389 233.621 896.045 222.869C885.719 212.136 880.519 197.965 880.519 180.253H878.519C878.519 198.383 883.856 213.084 894.603 224.255C905.333 235.407 921.358 242.94 942.554 246.946L942.926 244.981ZM880.519 180.253C880.519 164.515 884.777 150.957 893.264 139.531L891.659 138.339C882.889 150.144 878.519 164.131 878.519 180.253H880.519ZM893.253 139.546C902.09 128.091 914.216 119.23 929.674 112.981L928.924 111.127C913.187 117.489 900.754 126.549 891.67 138.324L893.253 139.546ZM929.674 112.981C945.131 106.732 962.921 103.595 983.062 103.595V101.595C962.715 101.595 944.663 104.764 928.924 111.127L929.674 112.981ZM983.062 103.595C1000.22 103.595 1016.71 106.07 1032.54 111.017L1033.14 109.108C1017.11 104.099 1000.42 101.595 983.062 101.595V103.595ZM1032.56 111.022C1048.37 115.634 1061.85 122.707 1073.01 132.229L1074.31 130.707C1062.91 120.981 1049.17 113.783 1033.12 109.102L1032.56 111.022ZM1072.74 131.085L1055.81 171.905L1057.66 172.671L1074.59 131.851L1072.74 131.085ZM1057.37 171.518C1047.64 163.465 1035.92 157.105 1022.21 152.425L1021.57 154.318C1035.08 158.931 1046.58 165.181 1056.1 173.058L1057.37 171.518ZM1022.22 152.428C1008.86 147.75 995.967 145.402 983.56 145.402V147.402C995.712 147.402 1008.38 149.701 1021.56 154.315L1022.22 152.428ZM983.56 145.402C967.216 145.402 954.855 148.231 946.642 154.049L947.798 155.681C955.515 150.215 967.381 147.402 983.56 147.402V145.402ZM946.626 154.061C938.744 159.886 934.771 167.649 934.771 177.266H936.771C936.771 168.299 940.43 161.127 947.815 155.669L946.626 154.061ZM934.771 177.266C934.771 184.805 937.223 190.971 942.177 195.664C947.101 200.329 954.408 203.454 963.973 205.133L964.318 203.163C954.967 201.522 948.086 198.508 943.552 194.212C939.047 189.945 936.771 184.329 936.771 177.266H934.771ZM963.959 205.13L1013.74 214.588L1014.11 212.623L964.332 203.165L963.959 205.13ZM1013.74 214.589C1035.2 218.551 1051.25 225.793 1062.01 236.227L1063.41 234.791C1052.26 223.986 1035.79 216.626 1014.11 212.622L1013.74 214.589ZM1062.03 236.237C1073.08 246.638 1078.64 260.628 1078.64 278.32H1080.64C1080.64 260.171 1074.91 245.62 1063.4 234.781L1062.03 236.237ZM1078.64 278.32C1078.64 302.241 1069.32 321.02 1050.67 334.763L1051.85 336.373C1071.04 322.239 1080.64 302.853 1080.64 278.32H1078.64ZM1050.68 334.756C1031.98 348.204 1006.99 354.978 975.595 354.978V356.978C1007.26 356.978 1032.71 350.145 1051.85 336.38L1050.68 334.756ZM1140.01 246.959L1139.01 247.037L1139.09 247.959H1140.01V246.959ZM1120.6 0.0475616V-0.952438H1119.51L1119.6 0.125946L1120.6 0.0475616ZM1197.26 0.0475616L1198.26 0.125946L1198.34 -0.952438H1197.26V0.0475616ZM1177.84 246.959V247.959H1178.77L1178.84 247.037L1177.84 246.959ZM1124.08 351H1123.08V352H1124.08V351ZM1124.08 281.805V280.805H1123.08V281.805H1124.08ZM1193.77 281.805H1194.77V280.805H1193.77V281.805ZM1193.77 351V352H1194.77V351H1193.77ZM1141.01 246.88L1121.59 -0.0308228L1119.6 0.125946L1139.01 247.037L1141.01 246.88ZM1120.6 1.04756H1197.26V-0.952438H1120.6V1.04756ZM1196.26 -0.0308228L1176.85 246.88L1178.84 247.037L1198.26 0.125946L1196.26 -0.0308228ZM1177.84 245.959H1140.01V247.959H1177.84V245.959ZM1125.08 351V281.805H1123.08V351H1125.08ZM1124.08 282.805H1193.77V280.805H1124.08V282.805ZM1192.77 281.805V351H1194.77V281.805H1192.77ZM1193.77 350H1124.08V352H1193.77V350Z" fill="#1DB559"/>
</svg>
