<svg width="21" height="20" viewBox="0 0 21 20" fill="none" xmlns="http://www.w3.org/2000/svg">
<path d="M11.7299 1.50989L13.4899 5.02989C13.7299 5.51989 14.3699 5.98989 14.9099 6.07989L18.0999 6.60989C20.1399 6.94989 20.6199 8.42989 19.1499 9.88989L16.6699 12.3699C16.2499 12.7899 16.0199 13.5999 16.1499 14.1799L16.8599 17.2499C17.4199 19.6799 16.1299 20.6199 13.9799 19.3499L10.9899 17.5799C10.4499 17.2599 9.55991 17.2599 9.00991 17.5799L6.01991 19.3499C3.87991 20.6199 2.57991 19.6699 3.13991 17.2499L3.84991 14.1799C3.97991 13.5999 3.74991 12.7899 3.32991 12.3699L0.849909 9.88989C-0.610091 8.42989 -0.140091 6.94989 1.89991 6.60989L5.08991 6.07989C5.61991 5.98989 6.25991 5.51989 6.49991 5.02989L8.25991 1.50989C9.21991 -0.400107 10.7799 -0.400107 11.7299 1.50989Z" fill="#FBBC04"/>
</svg>
