<svg width="18" height="18" viewBox="0 0 18 18" fill="none" xmlns="http://www.w3.org/2000/svg">
<path d="M11.6172 1.82446H5.60407C2.99216 1.82446 1.43506 3.38156 1.43506 5.99347V11.9994C1.43506 14.6185 2.99216 16.1756 5.60407 16.1756H11.61C14.2219 16.1756 15.779 14.6185 15.779 12.0066V5.99347C15.7862 3.38156 14.2291 1.82446 11.6172 1.82446ZM7.8572 12.9538C7.6491 13.1619 7.25445 13.3628 6.96742 13.4058L5.20223 13.657C5.13765 13.6642 5.07307 13.6713 5.00849 13.6713C4.7143 13.6713 4.44162 13.5709 4.24788 13.3771C4.01109 13.1403 3.91063 12.7959 3.96804 12.4156L4.21918 10.6504C4.26223 10.3562 4.45597 9.96874 4.67124 9.76065L7.87155 6.56034C7.92895 6.71103 7.98636 6.86171 8.06529 7.03393C8.13704 7.18462 8.21597 7.34248 8.30208 7.48599C8.37384 7.60797 8.45277 7.72278 8.51735 7.80889C8.59628 7.93088 8.68956 8.04568 8.74697 8.11026C8.78284 8.16049 8.81155 8.19637 8.8259 8.21072C9.00529 8.42599 9.21338 8.62691 9.39277 8.77759C9.443 8.82782 9.4717 8.85652 9.48605 8.8637C9.59369 8.94981 9.70132 9.03591 9.7946 9.10049C9.90941 9.1866 10.0242 9.26553 10.1462 9.33011C10.2897 9.41622 10.4476 9.49515 10.6054 9.57408C10.7705 9.64584 10.9212 9.71042 11.0719 9.76065L7.8572 12.9538ZM12.4639 8.34706L11.8038 9.01439C11.7607 9.05744 11.7033 9.07897 11.6459 9.07897C11.6244 9.07897 11.5957 9.07897 11.5813 9.07179C10.1247 8.65561 8.96223 7.49317 8.54605 6.03652C8.52452 5.95759 8.54605 5.87149 8.60346 5.82126L9.27078 5.15393C10.3615 4.06324 11.4019 4.08477 12.4711 5.15393C13.0164 5.69927 13.2819 6.22309 13.2819 6.76843C13.2748 7.28507 13.0093 7.80171 12.4639 8.34706Z" fill="#1DB559"/>
</svg>
