<svg width="25" height="24" viewBox="0 0 25 24" fill="none" xmlns="http://www.w3.org/2000/svg">
<path d="M21.0841 6.72998C21.0641 6.72998 21.0341 6.72998 21.0041 6.72998C15.7141 6.19998 10.4341 5.99998 5.20414 6.52998L3.16414 6.72998C2.74414 6.76998 2.37414 6.46998 2.33414 6.04998C2.29414 5.62998 2.59414 5.26998 3.00414 5.22998L5.04414 5.02998C10.3641 4.48998 15.7541 4.69998 21.1541 5.22998C21.5641 5.26998 21.8641 5.63998 21.8241 6.04998C21.7941 6.43998 21.4641 6.72998 21.0841 6.72998Z" fill="white"/>
<path d="M8.58375 5.72C8.54375 5.72 8.50375 5.72 8.45375 5.71C8.05375 5.64 7.77375 5.25 7.84375 4.85L8.06375 3.54C8.22375 2.58 8.44375 1.25 10.7737 1.25H13.3938C15.7338 1.25 15.9538 2.63 16.1038 3.55L16.3237 4.85C16.3937 5.26 16.1137 5.65 15.7137 5.71C15.3038 5.78 14.9138 5.5 14.8538 5.1L14.6337 3.8C14.4938 2.93 14.4637 2.76 13.4037 2.76H10.7837C9.72375 2.76 9.70375 2.9 9.55375 3.79L9.32375 5.09C9.26375 5.46 8.94375 5.72 8.58375 5.72Z" fill="white"/>
<path d="M15.2939 22.7501H8.87388C5.38388 22.7501 5.24388 20.8201 5.13388 19.2601L4.48388 9.19007C4.45388 8.78007 4.77388 8.42008 5.18388 8.39008C5.60388 8.37008 5.95388 8.68008 5.98388 9.09008L6.63388 19.1601C6.74388 20.6801 6.78388 21.2501 8.87388 21.2501H15.2939C17.3939 21.2501 17.4339 20.6801 17.5339 19.1601L18.1839 9.09008C18.2139 8.68008 18.5739 8.37008 18.9839 8.39008C19.3939 8.42008 19.7139 8.77007 19.6839 9.19007L19.0339 19.2601C18.9239 20.8201 18.7839 22.7501 15.2939 22.7501Z" fill="white"/>
<path d="M13.7441 17.25H10.4141C10.0041 17.25 9.66406 16.91 9.66406 16.5C9.66406 16.09 10.0041 15.75 10.4141 15.75H13.7441C14.1541 15.75 14.4941 16.09 14.4941 16.5C14.4941 16.91 14.1541 17.25 13.7441 17.25Z" fill="white"/>
<path d="M14.584 13.25H9.58398C9.17398 13.25 8.83398 12.91 8.83398 12.5C8.83398 12.09 9.17398 11.75 9.58398 11.75H14.584C14.994 11.75 15.334 12.09 15.334 12.5C15.334 12.91 14.994 13.25 14.584 13.25Z" fill="white"/>
</svg>
